<?xml version="1.0" ?><svg id="Layer_1" style="enable-background:new 0 0 100 100;" version="1.1" viewBox="0 0 100 100" xml:space="preserve" xmlns="http://www.w3.org/2000/svg" xmlns:xlink="http://www.w3.org/1999/xlink"><g><path d="M21.2,80.4c-0.4,0-0.9-0.2-1.2-0.5c-0.4-0.4-0.6-1.1-0.4-1.7l4.9-14.6c0.2-0.6,0.5-1.2,1-1.6l41.2-41.2   c1.6-1.6,4.2-1.6,5.8,0l6.6,6.6c1.6,1.6,1.6,4.2,0,5.8L38,74.5c-0.4,0.4-1,0.8-1.6,1l-14.6,4.9C21.6,80.4,21.4,80.4,21.2,80.4z    M69.7,21.6c-0.5,0-1.1,0.2-1.5,0.6L27,63.5c-0.2,0.2-0.4,0.5-0.5,0.8l-4.7,13.9l13.9-4.7c0.3-0.1,0.6-0.3,0.8-0.5l41.2-41.2   c0.8-0.8,0.8-2.2,0-3l-6.6-6.6C70.8,21.8,70.2,21.6,69.7,21.6z"/></g><g><path d="M69.2,42.8c-0.3,0-0.5-0.1-0.7-0.3l-11-11c-0.4-0.4-0.4-1,0-1.4s1-0.4,1.4,0l11,11c0.4,0.4,0.4,1,0,1.4   C69.7,42.7,69.4,42.8,69.2,42.8z"/></g><g><path d="M73.2,38.8c-0.3,0-0.5-0.1-0.7-0.3l-11-11c-0.4-0.4-0.4-1,0-1.4s1-0.4,1.4,0l11,11c0.4,0.4,0.4,1,0,1.4   C73.7,38.7,73.4,38.8,73.2,38.8z"/></g><g><path d="M37.2,74.8c-0.3,0-0.5-0.1-0.7-0.3l-11-11c-0.4-0.4-0.4-1,0-1.4s1-0.4,1.4,0l11,11c0.4,0.4,0.4,1,0,1.4   C37.7,74.7,37.4,74.8,37.2,74.8z"/></g></svg>