<svg width="87" height="150" viewBox="0 0 87 150" fill="none" xmlns="http://www.w3.org/2000/svg">
<path d="M44.4125 0.00335631C44.5379 -0.0190193 44.6359 0.0704835 44.7064 0.271865C44.7848 0.495622 44.8239 0.786506 44.8239 1.14452L45.1189 26.8007C45.1267 27.1587 45.0914 27.4384 45.0131 27.6397C44.9426 27.8635 44.7338 27.973 44.6006 27.9953C44.4752 28.0177 44.1958 27.9623 44.1175 27.7609C44.0391 27.5595 43.9999 27.2798 43.9999 26.9218C43.9999 26.5638 44.0011 1.24521 44.0011 1.24521C43.9933 0.887196 44.0246 0.596312 44.0951 0.372555C44.1735 0.148798 44.2793 0.025732 44.4125 0.00335631Z" fill="white"/>
<path d="M46.6525 0.00335631C46.7778 -0.0190193 46.8758 0.0704835 46.9463 0.271865C47.0247 0.495622 47.0639 0.786506 47.0639 1.14452L47.3588 26.8007C47.3666 27.1587 47.3314 27.4384 47.253 27.6397C47.1825 27.8635 46.9737 27.973 46.8405 27.9953C46.7151 28.0177 46.4358 27.9623 46.3574 27.7609C46.279 27.5595 46.2399 27.2798 46.2399 26.9218C46.2399 26.5638 46.241 1.24521 46.241 1.24521C46.2332 0.887196 46.2645 0.596312 46.3351 0.372555C46.4134 0.148798 46.5192 0.025732 46.6525 0.00335631Z" fill="white"/>
<path fill-rule="evenodd" clip-rule="evenodd" d="M67.4056 59.9902C67.194 59.7785 66.9001 59.6727 66.5239 59.6727H53.2632V56.8866L65.6422 56.5692C65.9949 56.5457 66.277 56.4281 66.4886 56.2165C66.7002 55.9814 66.806 55.6875 66.806 55.3348C66.806 54.9821 66.7002 54.7 66.4886 54.4884C66.277 54.2533 65.9949 54.1474 65.6422 54.171H65.5717C65.6422 53.7242 65.7127 53.3128 65.7833 52.9366C65.8538 52.5604 65.9243 52.2077 65.9949 51.8786C66.1124 51.0556 65.9596 50.3973 65.5364 49.9036C65.1132 49.4098 64.4783 49.1864 63.6319 49.2335L53.0163 49.5861H52.6284C52.5108 49.5626 52.3697 49.5391 52.2051 49.5156L51.1471 49.4098C50.7944 49.3628 50.4888 49.4451 50.2301 49.6567C49.995 49.8448 49.854 50.1034 49.8069 50.4326C49.7599 50.8088 49.8187 51.1144 49.9833 51.3495C50.1714 51.5847 50.4418 51.7257 50.7944 51.7728L51.9935 51.9138C52.2287 51.9608 52.4285 51.9844 52.5931 51.9844H53.1574L63.244 51.6669C63.197 51.9961 63.1382 52.3723 63.0676 52.7955C63.0206 53.1952 62.9383 53.689 62.8208 54.2768L50.1243 54.6294C49.7717 54.653 49.4778 54.7705 49.2426 54.9821C49.031 55.1937 48.9252 55.4759 48.9252 55.8285C48.9252 56.2047 49.031 56.4986 49.2426 56.7102C49.4778 56.9219 49.7717 57.0159 50.1243 56.9924H50.3712V59.3906C50.3712 60.2135 50.6181 60.8718 51.1118 61.3656C51.6291 61.8829 52.2992 62.1415 53.1221 62.1415H66.5239C66.9001 62.1415 67.194 62.0239 67.4056 61.7888C67.6407 61.5772 67.7583 61.2951 67.7583 60.9424C67.7583 60.5427 67.6407 60.2253 67.4056 59.9902ZM44.5168 44.7192C43.7644 44.7662 43.3882 45.1659 43.3882 45.9183C43.4117 46.2945 43.5293 46.5884 43.7409 46.8C43.976 47.0116 44.2699 47.1056 44.6226 47.0821L71.5672 46.5531C72.3431 46.5061 72.731 46.0946 72.731 45.3187C72.7075 44.9425 72.5782 44.6486 72.3431 44.437C72.1315 44.2254 71.8376 44.1314 71.4614 44.1549L44.5168 44.7192ZM66.7002 39.3937C66.4651 39.1821 66.1477 39.0763 65.748 39.0763L52.84 39.3585V32.446C52.84 31.9993 52.6989 31.6466 52.4168 31.3879C52.1581 31.1293 51.8054 31 51.3587 31H51.3235C50.8767 31 50.5123 31.1411 50.2301 31.4232C49.9715 31.7054 49.8422 32.0698 49.8422 32.5165V39.8522C49.8422 40.487 50.0303 41.0043 50.4065 41.404C50.8062 41.7802 51.3235 41.9565 51.9583 41.933L65.8538 41.6156C66.6767 41.5686 67.0882 41.1336 67.0882 40.3107C67.0647 39.911 66.9353 39.6054 66.7002 39.3937ZM17.6807 37.3835C17.3045 38.3004 17.1164 39.2644 17.1164 40.2754C17.1164 41.31 17.3045 42.2975 17.6807 43.2379C18.0804 44.1549 18.6447 44.9661 19.3736 45.6714C20.1024 46.3768 20.9959 46.9411 22.0539 47.3643C23.112 47.7875 24.2993 47.9991 25.616 47.9991C26.9326 47.9991 28.12 47.7875 29.178 47.3643C30.2361 46.9411 31.1295 46.3768 31.8584 45.6714C32.5872 44.9661 33.1398 44.1549 33.516 43.2379C33.9157 42.2975 34.1155 41.31 34.1155 40.2754C34.1155 39.2644 33.9157 38.3004 33.516 37.3835C33.1398 36.443 32.5872 35.6201 31.8584 34.9147C31.1295 34.1859 30.2361 33.6098 29.178 33.1866C28.12 32.7634 26.9326 32.5518 25.616 32.5518C24.2993 32.5518 23.112 32.7634 22.0539 33.1866C20.9959 33.6098 20.1024 34.1859 19.3736 34.9147C18.6447 35.6201 18.0804 36.443 17.6807 37.3835ZM20.3963 42.2857C20.1612 41.6509 20.0437 40.9808 20.0437 40.2754C20.0437 39.5701 20.1612 38.9 20.3963 38.2652C20.655 37.6304 21.0194 37.0778 21.4896 36.6076C21.9599 36.1138 22.5359 35.7259 23.2178 35.4437C23.9231 35.1616 24.7225 35.0205 25.616 35.0205C26.5094 35.0205 27.2971 35.1616 27.9789 35.4437C28.6843 35.7259 29.2721 36.1138 29.7423 36.6076C30.2125 37.0778 30.5652 37.6304 30.8003 38.2652C31.059 38.9 31.1883 39.5701 31.1883 40.2754C31.1883 40.9808 31.059 41.6509 30.8003 42.2857C30.5652 42.9205 30.2125 43.4848 29.7423 43.9786C29.2721 44.4488 28.6843 44.825 27.9789 45.1071C27.2971 45.3893 26.5094 45.5303 25.616 45.5303C24.7225 45.5303 23.9231 45.3893 23.2178 45.1071C22.5359 44.825 21.9599 44.4488 21.4896 43.9786C21.0194 43.4848 20.655 42.9205 20.3963 42.2857ZM24.4169 49.0924C24.1582 49.351 24.0289 49.7037 24.0289 50.1504V54.8763L12.1084 55.1232C11.309 55.1702 10.9093 55.5934 10.9093 56.3928C10.9328 56.769 11.0621 57.0747 11.2972 57.3098C11.5323 57.5214 11.838 57.6155 12.2142 57.5919L39.1235 57.0629C39.9229 57.0159 40.3226 56.5927 40.3226 55.7933C40.2991 55.3936 40.1698 55.0879 39.9347 54.8763C39.6996 54.6412 39.3939 54.5354 39.0177 54.5589L26.9561 54.8058V50.1504C26.9561 49.7037 26.8268 49.351 26.5682 49.0924C26.3096 48.8338 25.9569 48.7044 25.5102 48.7044C25.0399 48.7044 24.6755 48.8338 24.4169 49.0924ZM27.2383 68.9482C27.638 68.9247 27.9554 69.0422 28.1905 69.3009C28.4492 69.536 28.5667 69.8534 28.5432 70.2531C28.4727 71.029 28.4021 71.7461 28.3316 72.4044C28.2846 73.0392 28.2258 73.6388 28.1553 74.2031C28.1082 74.7439 28.0494 75.2729 27.9789 75.7901C27.9084 76.2839 27.8261 76.7894 27.732 77.3067H28.12C28.4962 77.2831 28.8018 77.3889 29.0369 77.6241C29.2721 77.8357 29.4014 78.1296 29.4249 78.5058C29.4249 79.3052 29.0252 79.7284 28.2258 79.7754L17.7512 80.0223C17.6102 80.6806 17.1517 81.0333 16.3758 81.0803C15.9761 81.0803 15.6352 80.9627 15.353 80.7276C15.0944 80.469 14.9651 80.1398 14.9651 79.7401L14.6124 69.5125C14.6124 69.0893 14.7535 68.7366 15.0356 68.4544C15.3178 68.1723 15.6704 68.0312 16.0937 68.0312C16.4934 68.0312 16.8108 68.1488 17.0459 68.3839C17.3045 68.619 17.4338 68.9364 17.4338 69.3361L27.2383 68.9482ZM27.3441 90.5321C26.9679 90.5556 26.6622 90.4616 26.4271 90.2499C26.192 90.0383 26.0627 89.7444 26.0392 89.3682C25.9922 88.9921 26.0744 88.6864 26.2861 88.4513C26.4977 88.2162 26.7916 88.0868 27.1678 88.0633L34.1155 87.7107V68.525C34.1155 67.9372 33.9157 67.4317 33.516 67.0084C32.9282 66.3266 32.9634 65.6565 33.6218 64.9982C33.9039 64.716 34.2213 64.5867 34.574 64.6102C34.9502 64.6337 35.2676 64.7866 35.5262 65.0687L36.1963 65.8093C36.5255 66.1855 36.7488 66.597 36.8664 67.0437C36.984 67.4904 37.0427 67.9842 37.0427 68.525V95.9281C37.0427 96.3278 36.9134 96.6569 36.6548 96.9156C36.3962 97.1742 36.067 97.3035 35.6673 97.3035H35.491C35.0913 97.3035 34.7621 97.1742 34.5035 96.9156C34.2448 96.6569 34.1155 96.3278 34.1155 95.9281V90.1794L27.3441 90.5321ZM23.4646 94.4115C23.4646 94.8112 23.3353 95.1404 23.0767 95.399C22.8181 95.6577 22.4889 95.787 22.0892 95.787H21.9128C21.5131 95.787 21.184 95.6577 20.9253 95.399C20.6667 95.1404 20.5374 94.8112 20.5374 94.4115V86.3705C19.1032 86.5351 17.6807 86.6761 16.27 86.7937C14.8828 86.8877 13.5426 86.97 12.2495 87.0406C11.8733 87.0641 11.5676 86.97 11.3325 86.7584C11.0974 86.5233 10.9563 86.2177 10.9093 85.8415C10.8623 85.4653 10.9446 85.1596 11.1562 84.9245C11.3678 84.6894 11.6617 84.5601 12.0379 84.5366C15.1414 84.372 18.339 84.1016 21.6307 83.7254C24.9224 83.3257 28.0965 82.7967 31.153 82.1383C31.5292 82.0443 31.8466 82.0913 32.1052 82.2794C32.3639 82.444 32.5285 82.7026 32.599 83.0553C32.646 83.4315 32.5755 83.7607 32.3874 84.0428C32.2228 84.3014 31.9642 84.4778 31.6115 84.5718C30.3419 84.854 29.0134 85.1126 27.6262 85.3477C26.2625 85.5828 24.8753 85.7944 23.4646 85.9825V94.4115ZM25.0517 77.3772C25.2163 76.2486 25.3338 75.2494 25.4044 74.3794C25.4984 73.486 25.5572 72.522 25.5807 71.4875L17.5044 71.8049L17.716 77.5535L25.0517 77.3772ZM62.9618 94.9406C63.2205 94.7054 63.3498 94.3763 63.3498 93.9531V81.1156L67.4056 80.9392V95.8928C67.4056 96.316 67.5349 96.6569 67.7935 96.9156C68.0522 97.1742 68.3931 97.3035 68.8163 97.3035C69.2395 97.3035 69.5804 97.1742 69.8391 96.9156C70.0977 96.6569 70.227 96.316 70.227 95.8928V68.525C70.227 67.9842 70.1565 67.4904 70.0154 67.0437C69.8978 66.597 69.6745 66.1855 69.3453 65.8093L68.7105 65.104C68.4519 64.7983 68.1344 64.6455 67.7583 64.6455C67.4056 64.6455 67.0882 64.7866 66.806 65.0687C66.5239 65.3509 66.3828 65.6683 66.3828 66.021C66.3828 66.3501 66.5239 66.6793 66.806 67.0084C67.2057 67.4317 67.4056 67.9372 67.4056 68.525V78.4705L63.3498 78.6468V70.9584C63.3498 70.4177 63.291 69.9239 63.1734 69.4772C63.0559 69.007 62.8325 68.5955 62.5034 68.2428L61.8685 67.5375C61.2572 66.8556 60.6342 66.8321 59.9993 67.4669C59.6937 67.7726 59.5409 68.1017 59.5409 68.4544C59.5409 68.7836 59.6937 69.101 59.9993 69.4067L60.0346 69.4419C60.4108 69.8181 60.5989 70.3236 60.5989 70.9584V93.9531C60.5989 94.3763 60.7164 94.7054 60.9516 94.9406C61.2102 95.1992 61.5511 95.3285 61.9743 95.3285C62.3975 95.3285 62.7267 95.1992 62.9618 94.9406ZM46.8797 81.3977C46.6211 82.056 46.4918 82.7379 46.4918 83.4433C46.4918 84.1486 46.6211 84.8305 46.8797 85.4888C47.1383 86.1471 47.5028 86.7349 47.973 87.2522C48.4432 87.7459 49.0193 88.1456 49.7011 88.4513C50.4065 88.7334 51.1941 88.8745 52.0641 88.8745C52.934 88.8745 53.7099 88.7334 54.3918 88.4513C55.0971 88.1456 55.6849 87.7459 56.1551 87.2522C56.6489 86.7349 57.0133 86.1471 57.2484 85.4888C57.5071 84.8305 57.6364 84.1486 57.6364 83.4433C57.6364 82.7144 57.5071 82.0208 57.2484 81.3624C56.9898 80.7041 56.6254 80.1281 56.1551 79.6343C55.6849 79.1406 55.0971 78.7526 54.3918 78.4705C53.7099 78.1648 52.934 78.012 52.0641 78.012C51.1941 78.012 50.4065 78.1648 49.7011 78.4705C49.0193 78.7526 48.4432 79.1523 47.973 79.6696C47.5028 80.1633 47.1383 80.7394 46.8797 81.3977ZM43.7056 75.7901C43.8467 76.0488 44.0818 76.2369 44.411 76.3544L45.5395 76.7071C45.7982 76.7776 46.045 76.8247 46.2802 76.8482C46.5388 76.8482 46.7974 76.8364 47.056 76.8129L58.0596 76.2839C58.4593 76.2604 58.7532 76.1428 58.9413 75.9312C59.1294 75.6961 59.2117 75.4022 59.1882 75.0495C59.1647 74.6733 59.0471 74.3794 58.8355 74.1678C58.6239 73.9327 58.33 73.8269 57.9538 73.8504L47.0208 74.3794C46.8327 74.4029 46.6799 74.4029 46.5623 74.3794C46.4447 74.3559 46.3037 74.3206 46.1391 74.2736L45.1163 73.9915C44.7636 73.8739 44.4462 73.9092 44.1641 74.0973C43.9055 74.2854 43.7409 74.544 43.6703 74.8732C43.5763 75.2023 43.588 75.508 43.7056 75.7901ZM54.1449 85.6651C53.6511 86.2059 52.9575 86.4763 52.0641 86.4763C51.1706 86.4763 50.477 86.2059 49.9833 85.6651C49.4895 85.1244 49.2426 84.3837 49.2426 83.4433C49.2426 82.5028 49.4895 81.7622 49.9833 81.2214C50.477 80.6806 51.1706 80.4102 52.0641 80.4102C52.9575 80.4102 53.6511 80.6806 54.1449 81.2214C54.6621 81.7622 54.9208 82.5028 54.9208 83.4433C54.9208 84.3837 54.6621 85.1244 54.1449 85.6651ZM47.5145 70.3942C47.3264 71.1701 47.5968 71.6873 48.3257 71.9459L48.8547 72.1223C49.0428 72.1928 49.2544 72.2281 49.4895 72.2281H50.1596H50.4065L55.0618 72.087C55.8848 72.04 56.2727 71.6168 56.2257 70.8174C56.2022 70.4412 56.0846 70.1473 55.873 69.9357C55.6614 69.7006 55.3557 69.5948 54.956 69.6183L50.336 69.7593C50.0538 69.7593 49.7717 69.7241 49.4895 69.6535L48.9958 69.5125C48.6196 69.3949 48.2904 69.4302 48.0083 69.6183C47.7496 69.8064 47.5851 70.065 47.5145 70.3942ZM27.0972 114.585C27.4734 114.585 27.7791 114.691 28.0142 114.902C28.2493 115.114 28.3786 115.408 28.4021 115.784C28.4021 116.16 28.2963 116.466 28.0847 116.701C27.8731 116.936 27.5792 117.053 27.203 117.053L16.7285 117.3C16.6109 118.029 16.1642 118.417 15.3883 118.464C14.9651 118.464 14.6242 118.347 14.3655 118.112C14.1069 117.853 13.9658 117.512 13.9423 117.089L13.4486 104.886C13.4251 104.463 13.5426 104.11 13.8012 103.828C14.0834 103.522 14.4478 103.37 14.8945 103.37C15.2943 103.37 15.6117 103.487 15.8468 103.722C16.0819 103.957 16.223 104.275 16.27 104.674L26.1097 104.287C26.5564 104.263 26.8974 104.381 27.1325 104.639C27.3911 104.874 27.4969 105.215 27.4499 105.662C27.3794 106.602 27.3088 107.472 27.2383 108.272C27.1678 109.071 27.0855 109.835 26.9914 110.564C26.8974 111.27 26.8033 111.963 26.7093 112.645C26.6152 113.303 26.5094 113.962 26.3919 114.62L27.0972 114.585ZM29.2486 112.116C28.8724 112.116 28.5667 112.01 28.3316 111.799C28.12 111.587 28.0142 111.293 28.0142 110.917C28.0142 110.541 28.12 110.235 28.3316 110C28.5667 109.765 28.8724 109.647 29.2486 109.647L34.0802 109.577V103.793C34.0802 103.181 33.9039 102.699 33.5512 102.347C33.2221 102.018 33.0692 101.677 33.0927 101.324C33.1163 100.971 33.2926 100.642 33.6218 100.337C33.9744 100.031 34.3271 99.8898 34.6798 99.9133C35.0325 99.9133 35.3616 100.101 35.6673 100.478L36.161 101.077C36.4902 101.453 36.7136 101.865 36.8311 102.312C36.9487 102.758 37.0075 103.252 37.0075 103.793V118.429C37.0075 118.876 36.8782 119.228 36.6195 119.487C36.3609 119.746 35.9965 119.875 35.5262 119.875C35.0795 119.875 34.7268 119.746 34.4682 119.487C34.2096 119.228 34.0802 118.876 34.0802 118.429V112.045L29.2486 112.116ZM21.2428 124.283C20.8901 124.307 20.5962 124.225 20.3611 124.037C20.1495 123.825 20.0319 123.531 20.0084 123.155C19.9849 122.779 20.0789 122.485 20.2905 122.273C20.5021 122.038 20.796 121.909 21.1722 121.885L34.9972 121.462C35.6085 121.438 36.1023 121.615 36.4785 121.991C36.8546 122.367 37.0427 122.861 37.0427 123.472V131.513C37.0427 131.937 36.9134 132.277 36.6548 132.536C36.3962 132.818 36.0317 132.959 35.5615 132.959C35.1383 132.959 34.7856 132.818 34.5035 132.536C34.2448 132.277 34.1155 131.937 34.1155 131.513V123.931L21.2428 124.283ZM23.7468 114.691C23.9349 113.233 24.0995 111.846 24.2405 110.529C24.4051 109.212 24.4992 107.978 24.5227 106.826L16.3758 107.143L16.6579 114.832L23.7468 114.691ZM61.269 121.462C61.2455 121.109 61.0809 120.804 60.7752 120.545L54.7444 115.255C55.7084 114.15 56.5548 113.103 57.2837 112.116C58.0361 111.105 58.6474 110.153 59.1176 109.259C59.5173 108.554 59.5409 107.954 59.1882 107.461C58.859 106.943 58.2477 106.708 57.3543 106.755L49.5953 107.108C49.1956 107.108 48.8429 107.073 48.5373 107.002L47.8319 106.826C47.4793 106.732 47.1618 106.767 46.8797 106.932C46.6211 107.073 46.4447 107.32 46.3507 107.672C46.2331 108.048 46.2449 108.378 46.386 108.66C46.5505 108.942 46.8092 109.13 47.1618 109.224L48.0788 109.471C48.361 109.541 48.6313 109.588 48.89 109.612C49.1486 109.612 49.3955 109.6 49.6306 109.577L55.8377 109.295C55.438 109.906 54.8855 110.658 54.1801 111.552C53.4748 112.445 52.6519 113.421 51.7114 114.479C50.7944 115.513 49.7599 116.571 48.6078 117.653C47.4793 118.735 46.3037 119.746 45.081 120.686C44.7519 120.945 44.5638 121.239 44.5168 121.568C44.4697 121.897 44.5755 122.226 44.8342 122.555C45.0928 122.884 45.4102 123.073 45.7864 123.12C46.1626 123.167 46.5153 123.061 46.8444 122.802C47.9495 121.909 49.0075 121.003 50.0185 120.087C51.0296 119.146 51.9935 118.206 52.9105 117.265L59.0471 122.661C59.3528 122.92 59.6702 123.037 59.9993 123.014C60.352 122.99 60.6577 122.814 60.9163 122.485C61.1749 122.156 61.2925 121.815 61.269 121.462ZM66.3828 102.982C66.4769 103.193 66.5239 103.464 66.5239 103.793V131.125C66.5239 131.572 66.6532 131.925 66.9118 132.183C67.1705 132.442 67.5231 132.571 67.9699 132.571C68.4401 132.571 68.8045 132.442 69.0632 132.183C69.3218 131.925 69.4511 131.572 69.4511 131.125V103.793C69.4511 103.252 69.3923 102.758 69.2748 102.312C69.1572 101.865 68.9339 101.453 68.6047 101.077L68.0051 100.407C67.7465 100.125 67.4408 99.9604 67.0882 99.9133C66.7355 99.8663 66.3711 100.007 65.9949 100.337C65.3836 100.924 65.3836 101.583 65.9949 102.312C66.183 102.523 66.3123 102.747 66.3828 102.982ZM58.8066 149.212C72.8235 142.593 84.0167 127.775 86.8367 111.097H86.844C87.3732 107.973 86.496 104.779 84.4372 102.344C82.3529 99.8823 79.3081 98.465 76.0857 98.465H10.9091C7.68674 98.465 4.64195 99.8751 2.55772 102.344C0.49886 104.779 -0.378329 107.973 0.150884 111.097C2.97094 127.775 14.1642 142.593 28.1811 149.212H58.8066Z" fill="white"/>
<path d="M37.457 0.00335631C37.5823 -0.0190193 37.6803 0.0704835 37.7508 0.271865C37.8292 0.495622 37.8684 0.786506 37.8684 1.14452L38.1633 26.8007C38.1711 27.1587 38.1359 27.4384 38.0575 27.6397C37.987 27.8635 37.7782 27.973 37.645 27.9953C37.5196 28.0177 37.2403 27.9623 37.1619 27.7609C37.0835 27.5595 37.0444 27.2798 37.0444 26.9218C37.0444 26.5638 37.0455 1.24521 37.0455 1.24521C37.0377 0.887196 37.0691 0.596312 37.1396 0.372555C37.2179 0.148798 37.3237 0.025732 37.457 0.00335631Z" fill="white"/>
<ellipse cx="37.3852" cy="4.42966" rx="2.3852" ry="4.42966" fill="white"/>
</svg>
